<svg id="Layer_1" data-name="Layer 1" xmlns="http://www.w3.org/2000/svg" viewBox="0 0 384.61 360.87"><defs><style>.cls-1,.cls-10{fill:#ffd100;}.cls-2{fill:#010101;}.cls-3{fill:#fff;}.cls-10,.cls-11,.cls-4,.cls-7,.cls-8,.cls-9{fill-rule:evenodd;}.cls-5{fill:none;}.cls-6{fill:#01a4de;}.cls-7{fill:#ffd200;}.cls-8{fill:#f80;}.cls-9{fill:#ec2c2f;}.cls-11{fill:#fefefe;}</style></defs><g id="crown"><path class="cls-1" d="M70.09,28.14s14.84-8,18.37,6c6.24-2.87,8.34-.48,9.31,1,2.4,3.71-.17,9.33-2.94,12.85s4.37,1.8,7.35-.39c2.1-1.55,4.65-3.4,5.41-7.17,3.82,4,11.94,5.68,14.6,4.86,1.48-.46,2.65-1,1.14-1.34s-6.69-2-6.64-5.72c0-1.76.6-4.32,4.26-4.32,0,0-2.83-3.2-1.83-6.72a7.55,7.55,0,0,1,6.46-5.51c5.64-.47,9.58,2.45,8,8.76,3.93-.37,6,.82,7,2.89s1.21,5.24-1.77,8.71a35,35,0,0,1-3.79,3.76c1.11.59,11.47.54,14.73-9.84,2.37,3.19,7.42,9.6,16.74,2.6-5.63-.93-8.95-2.61-8.55-7.6a6.4,6.4,0,0,1,7.49-5.93c2.3-3.57,6.83-12.84,18.55-10.84-5.93,9.43-3.93,18.25-7.49,23s-10.15,11-15.9,11-7.71-1.33-9.52-3.09c-1.75,4.06-5.59,5.43-22.54,7.28C115.2,53.89,109.94,49,109.94,49s-5.75,7.71-13.18,8.24-15.82-5.42-15.3-10S80,30,70.09,28.14Z"/><path class="cls-1" d="M119.82,64.27c-7.5,1.24-26,2.25-30.51,1.16-3-.74-5.51-3.39-2.51-5.81s15.26-2.9,35.4-5.8,38.87-6.36,45.32-5.39,9,2.66,9,5.25c0,1.23-1.73,3.87-7.87,4.42s-19.18-.86-30.05,1.38C132.07,60.82,128.78,62.79,119.82,64.27Z"/><path class="cls-2" d="M134.68,37.65a5.2,5.2,0,1,0-5.2,5.2A5.2,5.2,0,0,0,134.68,37.65Zm-5.2,2.2a2.2,2.2,0,1,1,2.2-2.2A2.2,2.2,0,0,1,129.48,39.85Zm56.11-24.54a2,2,0,0,0,.14-1.88,2,2,0,0,0-1.49-1.16c-12.06-2.06-17.4,6.58-20,10.75a8.52,8.52,0,0,0-5.36,1.87,8.31,8.31,0,0,0-2.77,4.33,6.78,6.78,0,1,0-9.2,8.21,11.52,11.52,0,0,1-6.68,5.94c4.14-4.84,2.81-9.18,2-10.83s-2.61-3.77-6.44-4.07a7.94,7.94,0,0,0-1.74-5.83c-1.84-2.19-4.94-3.22-8.72-2.91a9.5,9.5,0,0,0-8.22,7,8.64,8.64,0,0,0,.59,5.94c-1.94,1-3.06,2.92-3.1,5.62A6.22,6.22,0,0,0,117,43.07a20.68,20.68,0,0,1-5.6-2.19,5.7,5.7,0,1,0-6.63,1.52A13.1,13.1,0,0,1,101,46a12.08,12.08,0,0,1-3.42,1.61c2.68-4.08,4.47-9.54,1.88-13.54-2.06-3.19-5.33-4.06-9.73-2.58a11.28,11.28,0,0,0-6-6.7c-6.4-2.82-14.27,1.38-14.6,1.56a2,2,0,0,0,.58,3.72c3.61.69,6.34,3.16,8.12,7.36,0,.1.07.2.11.31a7,7,0,0,0,1.78,11.69,9.85,9.85,0,0,0,2.46,4,18.58,18.58,0,0,0,5.3,3.75,8.26,8.26,0,0,0-2.63,1.26c-2.1,1.66-2.08,3.4-1.88,4.29.43,1.91,2.4,3.54,5,4.16a40.78,40.78,0,0,0,7.7.49,188,188,0,0,0,24.09-1.63,80.43,80.43,0,0,0,12.08-2.9c2.29-.69,4.44-1.35,7.16-1.9,7.18-1.44,15.36-1.33,21.93-1.25,3.45,0,6.44.09,8.65-.1,7.31-.65,9.36-4,9.42-5.87.14-4.44-5-5.94-9.84-6.69a39,39,0,0,0,8.47-8.17,5.49,5.49,0,0,0,3.18-8.73c.05-.33.11-.65.16-1C181.71,25,182.5,20.21,185.59,15.31ZM156,33.63a7.69,7.69,0,0,0,5.06,5.68,7.24,7.24,0,0,1-3.38.39,8.17,8.17,0,0,1-4.57-2.65A6.79,6.79,0,0,0,156,33.63Zm-9.13-2.41A2.79,2.79,0,1,1,149.67,34,2.79,2.79,0,0,1,146.88,31.22ZM107,35.5a1.69,1.69,0,0,1,1,3,2,2,0,0,0-1,0,2,2,0,0,0-.52.24,1.69,1.69,0,0,1,.52-3.3ZM83.53,45.84a25.41,25.41,0,0,0-.68-5.71,3,3,0,0,1,.68,5.71ZM176,53.63c0,.48-1.33,2.51-6.68,3-2.06.18-5,.14-8.35.09-6.71-.09-15.07-.2-22.56,1.31A77,77,0,0,0,131,60a78.5,78.5,0,0,1-11.69,2.81C111.3,64.09,92.9,65,88.7,64c-1.57-.37-2.66-1.25-2.8-1.89-.1-.45.38-.95.81-1.28.9-.72,3.19-1.27,6.5-1.8a17.41,17.41,0,0,0,2.66.24c.35,0,.69,0,1,0a15.26,15.26,0,0,0,5.24-1.38l2.52-.3c5.08-.59,10.82-1.27,17.55-2.22l5.32-.76c.38,0,.75-.06,1.14-.11a117.94,117.94,0,0,0,15.63-2.38c5.34-.78,10.21-1.44,14.24-1.85.62,0,1.26.06,2,.06h0a11.19,11.19,0,0,0,3-.45c.72,0,1.4-.05,2-.05a19.4,19.4,0,0,1,2.62.15C173.44,50.69,176.09,51.94,176,53.63Zm-68.28.51a32.45,32.45,0,0,0,2.55-2.5,19.42,19.42,0,0,0,3.92,1.7Zm67.82-19.45a1.49,1.49,0,0,1,.84-2.69A15.21,15.21,0,0,1,175.58,34.69ZM177.15,28c-.22,0-.44,0-.66,0a5.5,5.5,0,0,0-3.22,10c-3.69,4.29-8.79,8.16-12.76,8.31-5.15.2-7.24-.55-8.71-2-.48-.46-1-1.14-1.2-1.07a12.46,12.46,0,0,0-.75,1.3c-1.88,2.81-5,5-21.44,6.77-12,1.31-17.39-3.41-17.42-3.44-.42-.38-1.21-1.1-1.39-1.07s-.79.8-1.13,1.25c0,.07-5.41,6.74-11.85,7.19a15.81,15.81,0,0,1-11.55-4.55,8.16,8.16,0,0,1-.74-.87,7,7,0,0,0-1.86-13.7,8.48,8.48,0,0,0-.87.06l-.09-.23a16.9,16.9,0,0,0-6-7.67,10.66,10.66,0,0,1,6.58.24c2.16,1,3.6,3,4.4,6.18A2,2,0,0,0,89.3,36c5.09-2.35,6.24-.57,6.79.28,1.69,2.61-.29,7.28-2.84,10.53-1.83,2.33-.84,3.8-.32,4.33,2.27,2.35,8.46-.43,10.48-1.92a15.48,15.48,0,0,0,5.12-5.4c4.62,3.08,11.32,4.33,14.25,3.43,1.32-.4,3.3-1,3.25-2.9,0-.65-.65-1.31-2.6-1.2-2.25.12-4.76-2.89-4.74-4.84S119.51,36,121,36a2,2,0,0,0,1.5-3.33s-2.09-2.44-1.4-4.85a5.56,5.56,0,0,1,4.69-4.06c2.43-.2,4.38.35,5.34,1.5,1.11,1.31.89,3.32.51,4.77a2,2,0,0,0,2.13,2.49c4-.37,4.7,1.17,5,1.75.66,1.43.95,3.73-1.47,6.56a34.48,34.48,0,0,1-3.55,3.51,2,2,0,0,0,.33,3.31c1.36.73,5.07.59,8.43-.78a15.39,15.39,0,0,0,7.8-7,12,12,0,0,0,6.89,3.83c3.29.48,6.82-.68,10.49-3.44a2,2,0,0,0-.87-3.57c-6.11-1-7.11-2.64-6.89-5.47a4.57,4.57,0,0,1,1.6-3.19,4.8,4.8,0,0,1,3.66-.92,2,2,0,0,0,1.92-.9c.2-.31.42-.66.65-1,2.16-3.5,5.6-9.1,13-9.15A41.23,41.23,0,0,0,177.15,28Z"/><circle class="cls-3" cx="149.67" cy="31.22" r="2.79"/><circle class="cls-3" cx="107.02" cy="37.19" r="2.35"/><circle class="cls-3" cx="82.47" cy="43.07" r="3.08"/><path class="cls-3" d="M176.49,31.44a2.06,2.06,0,1,0,2.06,2.06A2.06,2.06,0,0,0,176.49,31.44Z"/><circle class="cls-3" cx="129.48" cy="37.65" r="2.34"/></g><g id="wapuu"><path id="all-outline" class="cls-4" d="M204.05,125.47C191,116,175.62,111,158.93,110.13c-36.56-.91-68.6,14.44-85.74,41.51-5.87,5.42-17.15,11.74-19.86,12.64a9.47,9.47,0,0,0-7.67,10.38c.45,3.61,2.71,7.67,8.57,9.48l-1.8,1.8c-3.61,4.51-5.42,9.93-4.52,14.89a6.46,6.46,0,0,0,.91,2.71A93.24,93.24,0,0,0,36.18,250a110.88,110.88,0,0,0,.9,12.18,12.49,12.49,0,0,0-4.06-.45,20.75,20.75,0,0,0-16.24,7.67,23.22,23.22,0,0,0-4.06,19.86c3.15,15.34,26.17,41.07,44.67,45.58a20.3,20.3,0,0,0,5,.45,14.33,14.33,0,0,0,11.74-5.87,13.38,13.38,0,0,0,1.8-3.61,94.89,94.89,0,0,0,42.87,15.8c3.16,10.83,12.19,12.63,18,12.63A27.21,27.21,0,0,0,158,344.34h1.36c3.61,0,8.12-.5,13.08-.91,12.57-1,28.52-5,42.33-15.74,44-34.2,37.55-116.48,24.46-153.93a54.11,54.11,0,0,0-3.16-7.68"/><path class="cls-5" d="M115.76,290.66a354.83,354.83,0,0,0,39.6-3.48c-3.72-7-9.47-14.78-16.24-18.58-5.62.32-11.13.53-16.34.59C115.69,274.42,114.71,282.4,115.76,290.66Z"/><path class="cls-3" d="M139.12,268.6c6.77,3.8,12.52,11.62,16.24,18.58l2.16-.31a41.56,41.56,0,0,1,29.84-17.45,37.38,37.38,0,0,1,18.95,2.26,109.28,109.28,0,0,0,2.7-14.26,218.46,218.46,0,0,1-31,7C165.6,266.43,152,267.85,139.12,268.6Z"/><path class="cls-3" d="M115.76,290.66c-1.05-8.26-.07-16.24,7-21.47l-3.35,0c-5.7,0-11-.18-15.7-.54-24.11-1.86-46.58-8.78-61.12-14.23a81.6,81.6,0,0,0,2.6,17.24,34.4,34.4,0,0,1,5,5.55A208.13,208.13,0,0,0,92.7,289.41,127.71,127.71,0,0,0,115.76,290.66Z"/><path class="cls-3" d="M170.11,237.32c18.84-2.82,30.43-6.25,37-9-.39-1.5-.81-3-1.28-4.51a146.33,146.33,0,0,0-14.7-12.33c-24,5.89-46.27,8.85-66.68,8.85a180.94,180.94,0,0,1-33.75-3A118.33,118.33,0,0,1,61.29,208c-2.5-.13-4.9-1-6.16-2.69a90.33,90.33,0,0,0-9.07,20.37c11.73,4.79,35.12,13.13,59.82,15C122.18,242,148,240.63,170.11,237.32Z"/><path class="cls-3" d="M111.67,193.88c.34-3.2,2.14-7.2,7.54-12a48.06,48.06,0,0,1,11.29-7.22,37,37,0,0,1-18-4.51c-7.68,10.37-26.63,18-32.95,15.34-1.35-.45-2.7-1.81-4.06-3.16a.44.44,0,0,0-.45.45,12.56,12.56,0,0,1,2.58,4,103.34,103.34,0,0,0,20.31,5.46C102.42,193,107,193.55,111.67,193.88Z"/><path class="cls-3" d="M88.87,312.09c-7.55-1.28-14.7-2.92-21.33-4.74.68,1.47,1.23,2.7,1.58,3.59,0,.45.46.9.46,1.36A82.59,82.59,0,0,0,86.4,324.41c7,2.62,20.27,6.14,34,5.26.06-1.77.18-3.54.18-5.19,0-3.61.35-7.58-.21-11-3,.11-5.93.17-8.85.17A138.74,138.74,0,0,1,88.87,312.09Z"/><path class="cls-6" d="M124.48,220.37c20.41,0,42.71-3,66.68-8.85a51.57,51.57,0,0,0-19.6-8.88c-8.57-1.81-18.95.45-28,2.7-6.77,1.36-12.63,2.71-17.14,2.26-7.23-.9-12.64-4.51-14.45-9.48a12.09,12.09,0,0,1-.32-4.24c-4.65-.33-9.25-.87-13.79-1.65a103.34,103.34,0,0,1-20.31-5.46,10.47,10.47,0,0,1,.58,1.88c.9,5-.9,9.93-4.51,14-3.16,3.16-7.67,5.41-11.74,5.41l-.61,0a118.33,118.33,0,0,0,29.44,9.33A180.94,180.94,0,0,0,124.48,220.37Z"/><path class="cls-6" d="M207.14,228.36c-6.6,2.71-18.19,6.14-37,9-22.12,3.31-47.93,4.69-64.23,3.43-24.7-1.91-48.09-10.25-59.82-15A84.18,84.18,0,0,0,42.5,250c0,1.49,0,3,.11,4.42,14.54,5.45,37,12.37,61.12,14.23,4.69.36,10,.54,15.7.54l3.35,0c.3-.23.62-.45,1-.67a15,15,0,0,1,7.22-2.25,16.61,16.61,0,0,1,8.17,2.33c12.91-.75,26.48-2.17,38.87-4.17a218.46,218.46,0,0,0,31-7,70.12,70.12,0,0,0,.46-7.85A69.8,69.8,0,0,0,207.14,228.36Z"/><path class="cls-3" d="M156.22,288.83c.42-.67.85-1.32,1.3-2l-2.16.31C155.66,287.73,156,288.29,156.22,288.83Z"/><path class="cls-6" d="M118.31,302.82a100.52,100.52,0,0,1-2.55-12.16,127.71,127.71,0,0,1-23.06-1.25,208.13,208.13,0,0,1-42.51-12.18c6.43,8.54,13.82,22.56,17.35,30.12,6.63,1.82,13.78,3.46,21.33,4.74a138.74,138.74,0,0,0,22.64,1.61c2.92,0,5.88-.06,8.85-.17-.07-.42-.14-.83-.24-1.23C119.67,309.59,118.76,306.43,118.31,302.82Z"/><path class="cls-6" d="M86.4,324.41a83.68,83.68,0,0,0,34.17,10,28.45,28.45,0,0,1-.18-4.74C106.67,330.55,93.36,327,86.4,324.41Z"/><path class="cls-7" d="M154,327.15a42.87,42.87,0,0,1-4.35,10c-3.77,5.83-11.91,6.28-12.82,6.28-3.15,0-5-.45-6.31-1.8-3.16-3.16-3.16-10.38-2.71-17.15a122.94,122.94,0,0,0-.45-13.09,78.87,78.87,0,0,0-2.26-9.93c-3.16-13.53-5-22.56,2.71-27.52a5.14,5.14,0,0,1,3.61-1.36c8.57,0,19.85,17.15,22.11,25.73a28.29,28.29,0,0,1,.9,3.16,4.8,4.8,0,0,1,.46,2.25C156.67,313.2,156.23,319.48,154,327.15ZM42.5,275.74a17.94,17.94,0,0,0-9.93-3.61,9.41,9.41,0,0,0-9,3.61,14.78,14.78,0,0,0-2.26,11.74c2.26,11.73,23.47,34.74,37.91,38.35a6.69,6.69,0,0,0,2.7.45,4.51,4.51,0,0,0,3.61-1.35c1.81-2.71.91-8.57-.45-11.73C62.63,301.63,49.38,279.82,42.5,275.74Zm117.78,20.31c4.06,14,3.16,22.56,0,32.49a42,42,0,0,1-1.8,5.87,80.61,80.61,0,0,0,14.34-1.33c.12-.54.23-1.07.34-1.61.45-2.36.83-4.73,1.12-7.11s.5-4.8.55-7.1a46.44,46.44,0,0,0-.48-7,45.38,45.38,0,0,0-4.26-13.42,39.1,39.1,0,0,0-3.69-6,23.66,23.66,0,0,0-3.06-3.39,36.81,36.81,0,0,0-4,6.3C159.83,294.7,159.83,295.15,160.28,296.05Zm-50.54-130,1.35-1.35a2.73,2.73,0,0,1,1.81.45,31.8,31.8,0,0,0,12.76,4.53c8.36-2.49,21.28-5.19,33-3.93,12,1.3,21.31,4.21,29.59,9.49,2.25-3.25,9.08-14.53,6.14-27.47-4-17.46-18.19-27.57-39.06-27.73a100,100,0,0,0-19.51,1.64,135.92,135.92,0,0,0-6.51,12.67,1.51,1.51,0,0,1-1.13.85l-.24,0a1.49,1.49,0,0,1-1.09-.48l-7.67-8.15c-2,.85-4.09,1.78-6.09,2.79l-7.74,16.1a1.47,1.47,0,0,1-1.15.83l-.2,0a1.49,1.49,0,0,1-1.13-.52l-5.52-6.38A74.9,74.9,0,0,0,83,153.67c-.59.84-1.16,1.69-1.72,2.55l-.21.35a2.58,2.58,0,0,1-.37.54c-.08.14-.17.27-.25.4-4.07,6.77-5.87,13.09-4.07,17.6.91,3.61,3.61,5.87,5.42,6.32C84.92,182.78,103.87,176,109.74,166.08Z"/><path id="ear-right" class="cls-8" d="M54.68,173.3h0c-.45,0,0,.46.45.91.91.45,5,2.7,15.8-.45-.45-2.71,0-5.42.9-9.48-6.32,4.51-13.54,8.12-17.15,9"/></g><g id="suite"><path class="cls-9" d="M196.81,80c10.49-9.68,7.88-22.91,7.89-30.24a2.21,2.21,0,0,0-2.89-2.12c-2.54.84-7.32,2.06-16.19,2.23-18.55.35-25.12,15-25.12,15"/><path class="cls-9" d="M365.11,211.86c-2.38-2.05-5.24-4-7.85-10.92s3.73-9.78,2.86-17.7c-1.06-9.57-8.13-11.49-11.65-15.41,4.55,1.36,8-1.48,11.93-5.57-11.59.57-19.54-6.82-26.71-13.41s-19.37-13.94-36.88-8.34S267.08,168.16,264,180.14c-3.54,13.77-5.95,31.26,8.45,54.15q2.48,3.93,4.9,7.66l.21-.13,0,.06-.23.07c-4.8,2.91-8.94,6-11.63,9.26-10.82,13.15-8.91,29.55-6.52,37.43,6.61,21.69,3.88,39.09-4.68,39.09s-24.35-19.8-24.35-19.8l-9.6,8.6s3,3.08,11.82,11.49c4.69,4.48,15.4,14.92,35.26,11.77,29.64-4.7,55.69-41.74,31.47-81.71-2.85-4.75-5.46-9-7.84-12.92,5.13-2.72,11.2-5.39,18.54-8.37,16.49-6.69,24.15-17.62,24.95-28.27.73-9.77-5.44-21-16.49-22.4-9.9-1.25-19,6.07-23.8,6.84s-5.76-2.93-3.58-6.84c-5.13,1.09-8.93,5-7,10.33,1.08,3,5.6,4.6,10.58,3.51-1.87.63-4.71.73-7.65,6.25C282.35,214.62,290,222.63,292,227a45.08,45.08,0,0,1,2.47-5.91c1.09-1.87,4.8-5,4.8-12.57,0,.93,3.38,5.53,6.78,5.5,5,0,7.05-3.83,8.29-6-2.18.16-7-1.5-7.28-5.39s5.61-9.56,13.84-5.34c7.27,3.72,4.05,17-5.18,24.64-4.91,4-17.6,9.09-29.36,15.07l-.07,0c-10.27-17.18-14.82-27.22-14.12-44.06.47-11.55,7.55-27.64,18.71-37.25,11.43-9.83,23.26-8.35,28.81-3.62s8.42,17.5,3.64,28.64c.8.34,4.76-3,12.26-5.69C326.9,196,352.38,207.88,365.11,211.86ZM298.9,291.28c0,19-16.38,31.85-29.44,38.15a.77.77,0,0,1-1-1.1c6.13-10,5.2-25.71.81-43.72-2.87-11.79-1.07-20.55,6.52-28.35a50.79,50.79,0,0,1,6.9-5.87l.08,0C291.93,264.84,298.94,277.58,298.9,291.28Zm-63-119.61c-8.38-25.89-18.94-59.44-18.94-59.44s11,1.49,10.82-8.14c-3.59,2.34-8.89-.89-10.66-3.27-3.9-5.26-3.79-14.2-3.79-14.2s12.91-7.19,9.55-14c-6.6,5.61-16-6.22-24.81-7.91-11.82-2.28-24.07-6.16-35.68-6.87S128.25,60,111.43,65.65q-2.7.91-5.2,1.91h0s-34.13-9.82-54.52,2.19c2.44,8.29,4.89,14,7.29,17.85s6.68,11.06,12.64,15.52c-8.49,23,6.73,52.06,6.73,52.06A76.36,76.36,0,0,1,98.94,134.5c8.08-5.37,26-13.57,44.82-14.94,25.16-1.82,36.89,2.86,45.74,13.05,20.05,23.1-.48,48.86-2.82,47.46a68.36,68.36,0,0,0-35.43-10.23c-8.54-.05-23.57,2.48-29.68,4.32-4.8,1.45-14.31,4.81-20.52,9.9-1.11.1,7.1,1.82,12.44,3.13-9.07,3-10.63,6-12.2,17.73,1.77-1.49,1.52-2.31,8.67-4.73-4.13,3.32-3.87,15.61-1.75,23.87.1-2.51,4.07-7.95,7.69-9.87-.5,5.24.48,7.51,7.22,12.06.49.33-2-9.29,1.6-12.6,3.17-2.92,15-6.36,15-6.36-3.43,2.4-3,4.67-2.49,16.92,9.87-3.8,12.39-13.47,12.7-15.18l0-.07c.06-.3.08-.25,0,.07.88,3.17,2.53,9.19-.4,14.41,4.1-.39,12.43-7.05,15.76-13.2.39,5.38-.77,9.87-4.61,13.33,0,0,7-1.44,10.34-5s5.95-9,10.26-9.28c-1.75,2.44.12,3.68-.48,8-.56,4.06-8.93,8.44-8.93,8.44s1.65,1.26,6.86,1.26c5,0,9.46-6.47,16-6.73s14.85,5.8,17.61,25.39c1.75,12.43-1.95,19.59-6.29,30.54-1.45-2.16-9.79-5-19.33-4.26s-22.38,7.68-24.41,12.93c6.25,3.49,15.5,17.62,15,33.95-.31,10.87-5.11,21.56-5.11,21.56s21.58,4.48,52.82-28.7C259.23,275.34,241.22,188.19,235.87,171.67Zm-164,12.27c-6.15-1.79-12.24.61-15.13,2.45-5,3.16-8.48,7.77-8.21,12.76.39,7.13,3.38,9.35,3.38,9.35,3.94,4.18,6,11.46,7.74,22.68,2.41-2.06,7.45-14.32,6.76-16.47,1.15,1.73,7.1,9.26,8.25,15,0,1.61,4.58-10.53-.7-22.24,2.38,1.12,10.44,6.09,12.79,10.56-.39-7.67-4.76-16.84-10.26-22a71.31,71.31,0,0,1,10.26,4.23C83.76,190.18,75.47,185,71.83,183.94Z"/><path class="cls-10" d="M102.75,183.23l12.51-6.9,3.08,5.1-1.65,4.47Zm5,7.38-4.27,4.4-2,9,7.46-3.8,3-2.36Zm.58,10.92-1.6,13.18,1,7.09,8.2-7.61.79-6.74-2.29-5L110,200.19Zm15.14,12.25-5.08-1.53-2.44,1.94-.48,5.31L120.8,224l2,1.12Zm-66.66,2.39,4,13.65L66.2,216.9l-5.34-2.19ZM68.69,211l-1.64,4.2,8.29,13.05,1.4-8.44-2.54-8.32Zm11.84-9.5-4.46.47-1.86,2,.49,3.66,3.68,2.27L86,216.17l-1.51-8.52Zm-.81-4.38,6.3,2.31-1.76-4.86-5.2-5.64-2.32.36L75.36,191l.79,3.3Z"/><path class="cls-11" d="M116,107.6c-2.73-.18-5.13,2.49-5.13,2.49s-3.55-1-5.42.29c-1.65,1.13-2,3.53-.74,4.6a33,33,0,0,0,7.42,4.06c.45,0,5.65-4.93,6.39-7C118.9,110.9,118.61,107.78,116,107.6Z"/><polygon class="cls-11" points="103.96 144.86 112.27 127.57 97.22 137.06 103.96 144.86"/><path class="cls-11" d="M119.51,124.83l8.39,8.92s5.55-12,7.41-13.89S119.51,124.83,119.51,124.83Z"/><path class="cls-4" d="M366.74,210l-.66-.55c-2.13-1.79-4.33-3.64-6.48-9.35-1-2.72-.25-4.45.94-7.06s2.54-5.64,2.06-10c-.78-7.09-4.44-10.57-7.82-13.18,3.07-1.31,5.53-3.85,7.42-5.79a2.49,2.49,0,0,0,.48-2.77,2.52,2.52,0,0,0-2.4-1.47c-10.5.51-17.75-6.17-24.78-12.64l-.11-.11c-11.32-10.42-24.92-13.49-39.34-8.88-17.91,5.72-30.94,27.65-34.47,41.39-3.81,14.81-5.74,33.06,8.76,56.1q1.77,2.82,3.53,5.54a44,44,0,0,0-10.08,8.47c-13.26,16.11-8.14,35.93-7,39.74,5.21,17.11,4.06,29.67.78,34.09a3.74,3.74,0,0,1-3.07,1.77c-4.88,0-14.64-9.62-20.74-16.85,22.9-33.75,23.34-89.21,7.67-133.55a90.78,90.78,0,0,0-3.91-9.54c.78.07,1.56.09,2.45.09a36.44,36.44,0,0,0,9.8-1.27c19.59-6,28.53-20.45,28.11-28.54-.86-3.83-3.41-7.24-6.82-8.09-1.7-.43-20.92-.71-24.75-.78-4.18-.09-13.71.47-21.47,1.06l-4.07-12.84.56-.09a12.94,12.94,0,0,0,4.63-1.71,9.74,9.74,0,0,0,3.62-4.05,13.2,13.2,0,0,0,1.15-5,2.87,2.87,0,0,0-.11-.91,2.77,2.77,0,0,0-3.43-1.86l-1.1.33h0a2.2,2.2,0,0,1-1.36.3,5.73,5.73,0,0,1-2.07-.54,9.53,9.53,0,0,1-2.1-1.3,5.71,5.71,0,0,1-.83-.78c-.05-.06-.11-.12-.15-.18a1.16,1.16,0,0,1-.15-.21l-.36-.53a17,17,0,0,1-2-5.14,27.22,27.22,0,0,1-.49-2.89q-.06-.51-.09-1L217,89a23.21,23.21,0,0,0,2.27-1.54,19.18,19.18,0,0,0,4-4,15.13,15.13,0,0,0,2.48-5.38,15.53,15.53,0,0,0,.23-5.91,3.21,3.21,0,0,0-.55-1.38,3.12,3.12,0,0,0-4.36-.71l-.23.16a2.77,2.77,0,0,1-1.12.51,4.05,4.05,0,0,1-1.24.06,12.42,12.42,0,0,1-3.62-1.17c-1.37-.6-2.76-1.41-4.23-2.18l-2.24-1.2a4.91,4.91,0,0,0-1.19-.53l-.23,0a37.34,37.34,0,0,0,.45-4.3c.2-3.68-.1-7.31-.21-10.66V49.57l0-.34a4.71,4.71,0,0,0-3.34-4,4.72,4.72,0,0,0-2.76,0,36.63,36.63,0,0,1-4.75,1.18,69.13,69.13,0,0,1-10,.94c-.81,0-1.83.06-2.74.12s-1.87.18-2.79.33a32.77,32.77,0,0,0-5.5,1.37,30.14,30.14,0,0,0-9.81,5.64c-.16.13-.3.29-.45.42l-.23-.09a23.82,23.82,0,0,0-5.29-.54c-1.76-.06-3.52-.08-5.27-.06-3.5,0-7,.17-10.49.45a137,137,0,0,0-20.78,3.2,101,101,0,0,0-10.17,3,85.27,85.27,0,0,0-9.68,4,104.58,104.58,0,0,0-11.73-2.68A95.27,95.27,0,0,0,77.6,61.14a66.38,66.38,0,0,0-13.95,1.11,52.69,52.69,0,0,0-6.88,1.87,43.8,43.8,0,0,0-6.57,3,2.86,2.86,0,0,0-1.38,3.33l0,.1c.95,3.22,2,6.43,3.25,9.6a57.1,57.1,0,0,0,4.57,9.33A89.18,89.18,0,0,0,62.39,98a44.47,44.47,0,0,0,5.6,6l-.18.52A47.55,47.55,0,0,0,66,115.34a69.15,69.15,0,0,0,2.43,21.28,100.28,100.28,0,0,0,3.21,10.09,24.73,24.73,0,0,0,3.93,7.48A3,3,0,0,0,81,156.57c0-.08,4.21-7.73,16.28-17.11l5.52,6.38a1.49,1.49,0,0,0,1.13.52l.2,0a1.47,1.47,0,0,0,1.15-.83l7.74-16.1c2-1,4-1.94,6.09-2.79l7.67,8.15a1.49,1.49,0,0,0,1.09.48l.24,0a1.51,1.51,0,0,0,1.13-.85,135.92,135.92,0,0,1,6.51-12.67,100,100,0,0,1,19.51-1.64c20.87.16,35.1,10.27,39.06,27.73,2.94,12.94-3.89,24.22-6.14,27.47-8.28-5.28-17.57-8.19-29.59-9.49-12.45-1.34-26.29,1.81-34.54,4.42a57.82,57.82,0,0,0-6.6,2.25,57,57,0,0,0-6.15,2.94,77.86,77.86,0,0,0-11,7.38l-.14.07a2.09,2.09,0,0,0-.38.34,1.48,1.48,0,0,0,.17,2c.32.25.15.11.23.17l.07,0a1.63,1.63,0,0,0,.29.12l.3.06.28,0,.48,0,.92.08,1.81.16c1.2.11,2.4.23,3.59.36.73.08,1.47.17,2.2.27-.47.24-.94.5-1.4.78a18.71,18.71,0,0,0-1.66,1.19,1.46,1.46,0,0,0-.63.51l0,.06a15.09,15.09,0,0,0-2.66,3,21.6,21.6,0,0,0-2.68,6.23,48.44,48.44,0,0,0-1.24,6.42,1.44,1.44,0,0,0,2.37,1.3c.36-.31.7-.64,1-.92a8.25,8.25,0,0,1,.81-.72,9.88,9.88,0,0,1,1.88-1.09c.18-.09.38-.16.57-.24a17.75,17.75,0,0,0-.63,2.29,32.84,32.84,0,0,0-.59,6.44,52.23,52.23,0,0,0,1.54,12.63,1.45,1.45,0,0,0,2.86-.28v0a3.9,3.9,0,0,1,.28-1.08,11.26,11.26,0,0,1,.62-1.26,18,18,0,0,1,1.68-2.45,19.74,19.74,0,0,1,2.13-2.25,9.29,9.29,0,0,0,.7,3.17,13.11,13.11,0,0,0,4,4.8c.76.61,1.54,1.19,2.32,1.74l.58.4.3.2.07.05.06,0a1.49,1.49,0,0,0,.77.23,1.39,1.39,0,0,0,.7-.17,1.42,1.42,0,0,0,.41-.31,1.57,1.57,0,0,0,.19-.26c0-.09.11-.23.11-.23a1.44,1.44,0,0,0,.1-.51V226c0-.69-.1-1-.15-1.54a29.9,29.9,0,0,1-.27-5.3,7.24,7.24,0,0,1,1.32-4.31,8.38,8.38,0,0,1,1.89-1.34c.75-.42,1.56-.8,2.38-1.17,2.29-1,4.69-1.88,7.11-2.68a16.35,16.35,0,0,0-.21,1.77c-.1,1.66-.08,3.22-.13,4.74a20.44,20.44,0,0,1-.53,4.33,6.24,6.24,0,0,1-1.86,3.26,1.44,1.44,0,0,0,1.32,2.5,18.66,18.66,0,0,0,5.71-2.76,25.38,25.38,0,0,0,4.58-4.19,37.45,37.45,0,0,0,3.6-4.93c.25-.41.48-.84.72-1.27a17.19,17.19,0,0,1-1.87,9.58v0a1.37,1.37,0,0,0-.17.85,1.42,1.42,0,0,0,1.58,1.27,9.49,9.49,0,0,0,3-.87,20.35,20.35,0,0,0,2.49-1.35,34,34,0,0,0,4.39-3.3,39.28,39.28,0,0,0,3.86-3.88c.1-.12.19-.25.3-.37a14.15,14.15,0,0,1-.45,1.95,12,12,0,0,1-3.51,5.43l0,0A1.44,1.44,0,0,0,161,225a30.82,30.82,0,0,0,6.44-2.21,18.88,18.88,0,0,0,3-1.78,14.79,14.79,0,0,0,2.56-2.49c1.44-1.72,2.66-3.5,4-5a11.44,11.44,0,0,1,1.92-1.79,20.87,20.87,0,0,0,.43,2.75,8.31,8.31,0,0,1,.06,2.23,2.92,2.92,0,0,1-.18.91,4.52,4.52,0,0,1-.45.87,15,15,0,0,1-3.36,3.29,35.19,35.19,0,0,1-4.21,2.68h0a1.44,1.44,0,0,0-.54.44,1.4,1.4,0,0,0,.29,2l0,0a1.85,1.85,0,0,0,.3.2l.22.13c.14.07.27.15.4.2a8.05,8.05,0,0,0,.78.32,13.69,13.69,0,0,0,1.53.44,21.09,21.09,0,0,0,3,.44c.5,0,1,.06,1.49.09a9.4,9.4,0,0,0,1.77-.15,12.25,12.25,0,0,0,3.09-1.1c1.86-.91,3.43-2,5-2.86a16.08,16.08,0,0,1,4.56-1.92,9.14,9.14,0,0,1,8.25,2.65,22,22,0,0,1,5.27,8.46,51.06,51.06,0,0,1,2.6,10.31,44.79,44.79,0,0,1,.54,10.48,40.63,40.63,0,0,1-2.24,10.24c-.56,1.72-1.21,3.44-1.86,5.18l-1,2.61-.25.64-.21-.11a22.68,22.68,0,0,0-3.05-1.16,37,37,0,0,0-6.21-1.28,42.76,42.76,0,0,0-6.3-.31c-.91,0-1.84.08-2.77.18-16.17,1-24.19,11.74-24.52,12.2a2.48,2.48,0,0,0-.46,1.73,1.34,1.34,0,0,0,.54,1.55l.15.09a19.41,19.41,0,0,1,4.83,4.75,39.1,39.1,0,0,1,3.69,6,45.38,45.38,0,0,1,4.26,13.42,46.44,46.44,0,0,1,.48,7c-.05,2.3-.26,4.74-.55,7.1s-.67,4.75-1.12,7.11c-.15.77-.32,1.54-.49,2.31a117.39,117.39,0,0,1-19.22,2.09l.19,9a131.35,131.35,0,0,0,29.7-4.24c1.44-.22,2.87-.51,4.27-.87.9-.24,1.79-.52,2.67-.81a2.34,2.34,0,0,0,1.12-.38c1.7-.59,3.36-1.27,5-2a96.1,96.1,0,0,0,15.72-7.32,65.36,65.36,0,0,0,10.15-7.52c1.87,1.83,4.59,4.47,8.41,8.11l.15.14c4.26,4.07,13.52,12.9,29.66,12.9a48.85,48.85,0,0,0,7.57-.61c16.21-2.57,30.84-14,38.18-29.82,8-17.34,6.28-37.1-5-55.64-2.31-3.84-4.46-7.37-6.46-10.65,4.62-2.31,9.9-4.59,15.95-7.05,15.87-6.43,25.53-17.51,26.5-30.39.82-10.82-6.09-23.48-18.67-25.07-7.31-.93-14.08,2.3-19,4.65a27,27,0,0,1-5.48,2.21c-1.19.19-1.64-.05-1.69-.13-.17-.25-.24-1.36.7-3a2.51,2.51,0,0,0-2.71-3.67,12.29,12.29,0,0,0-8.36,5.64,9.45,9.45,0,0,0-.47,8A8.19,8.19,0,0,0,286.6,202a19.7,19.7,0,0,0-2,3.07c-4.21,7.9.37,15.2,3.4,20a31.55,31.55,0,0,1,1.73,3,2.5,2.5,0,0,0,4.63-.24,41.27,41.27,0,0,1,2.27-5.46,10.93,10.93,0,0,1,.71-1,20.14,20.14,0,0,0,3.61-6.8,8.46,8.46,0,0,0,5.07,1.95h0c6.34,0,9-4.79,10.34-7.07l.11-.2a2.49,2.49,0,0,0-2.35-3.73c-1.06.06-4.44-.94-4.61-3.1a4.08,4.08,0,0,1,2-3.08c1.28-.85,4-2,8.18.16a4.94,4.94,0,0,1,2.57,4.22c.47,4.35-2.2,11.33-8.2,16.27-3,2.46-9.71,5.61-16.82,8.94-3.29,1.54-6.69,3.14-10.05,4.8-9.35-15.84-13.24-25.16-12.6-40.72.43-10.35,6.7-25.85,17.85-35.45,10.87-9.36,21.25-7.29,25.56-3.61s7.66,14.78,3,25.75a2.5,2.5,0,0,0,1.32,3.28c1.46.63,2.69-.06,4.93-1.31,1.13-.64,2.59-1.46,4.41-2.33a20.87,20.87,0,0,0,1.64,12.91c6.25,13.38,25.32,20.23,31,22a2.5,2.5,0,0,0,2.37-4.29Zm-265-24.65-.22.11-.15.05-.08,0-.11,0,.62-.25S101.76,185.29,101.74,185.31ZM202.22,49.72v0ZM70.38,98a43.22,43.22,0,0,1-3.26-3.71,81.55,81.55,0,0,1-5.34-7.91A51.77,51.77,0,0,1,57.68,78c-.87-2.2-1.65-4.46-2.36-6.75a37.54,37.54,0,0,1,3.48-1.55,48.15,48.15,0,0,1,6-1.71,61.67,61.67,0,0,1,12.71-1.15,90.73,90.73,0,0,1,12.92,1.11c1.88.3,3.77.65,5.65,1-.84.53-1.67,1.07-2.48,1.64a63.61,63.61,0,0,0-8.34,6.84,67.87,67.87,0,0,0-7.11,8.07C77,87,76.08,88.45,75.06,89.92s-1.9,3-2.77,4.56C71.66,95.65,71,96.78,70.38,98Zm33.22,44.15-3.89-4.5c.32-.24.64-.48,1-.71,2.58-1.85,5.2-3.52,7.84-5.06Zm23.88-11-5.32-5.66a85.21,85.21,0,0,1,9.65-2.9C130.29,125.3,128.57,128.82,127.48,131.11Zm-19.2,52.23c-1.16-.12-2.31-.24-3.47-.34a75.48,75.48,0,0,1,7.93-5.06c.67-.38,1.36-.74,2.05-1.08a1.68,1.68,0,0,0,.2.37c.3.41,2.73,4-.2,7.11C112.59,183.87,110.44,183.59,108.28,183.34Zm-3.6,17.33c-.43.21-.88.43-1.32.68.16-.77.33-1.53.54-2.27a18.77,18.77,0,0,1,2.3-5.4,12.57,12.57,0,0,1,1.53-1.88,6,6,0,0,1,1.48,7.09l-.06,0A46.76,46.76,0,0,0,104.68,200.67Zm9.9,12.61a16.28,16.28,0,0,0-2.25,1.72,23.2,23.2,0,0,0-2.35,2.51c-.44.55-.85,1.12-1.24,1.71a49.78,49.78,0,0,1-.58-7.41,29.82,29.82,0,0,1,.54-5.87,12.89,12.89,0,0,1,.81-2.66,6.22,6.22,0,0,1,.82-1.39,6.53,6.53,0,0,1,3.59,3C115.58,207.9,114.89,211.92,114.58,213.28Zm7.21,2.69a14.51,14.51,0,0,0-.48,3.06,27.84,27.84,0,0,0,.12,4.2c-.19-.15-.39-.28-.57-.43a10.37,10.37,0,0,1-3.12-3.68,8.85,8.85,0,0,1-.45-4.09,5.31,5.31,0,0,1,2.86-.94,2.06,2.06,0,0,1,1.87,1.16A6.67,6.67,0,0,0,121.79,216ZM188.61,329.7c-3.12,1-6.42,1.95-9.85,2.77v0c.38-2.51.65-5,.84-7.55s.28-5,.23-7.66a46.73,46.73,0,0,0-.92-7.75,49.38,49.38,0,0,0-5.47-14.39,40.58,40.58,0,0,0-4.42-6.33,26.93,26.93,0,0,0-3.41-3.34,23.45,23.45,0,0,1,3.78-3.62c.94.39,12.5,5.48,16.9,23.32A77.2,77.2,0,0,1,188.61,329.7Zm18.86-8.18a85.06,85.06,0,0,1-13.72,6.39,83.61,83.61,0,0,0-2.6-24c-3.74-15.21-12.24-22.33-16.89-25.2a30.13,30.13,0,0,1,12.17-3.19c11-.57,19,2.44,23.88,8.91a2.5,2.5,0,1,0,4-3,25.49,25.49,0,0,0-5.45-5.38l.09-.22.55-1.29,1.1-2.59c.73-1.74,1.47-3.5,2.14-5.32a45.58,45.58,0,0,0,2.74-11.6,43.59,43.59,0,0,0-.7-11.9,55.85,55.85,0,0,0-3.24-11.35,26.9,26.9,0,0,0-7-10.15,15.39,15.39,0,0,0-5.79-3.15,12.71,12.71,0,0,0-6.73,0c-4.33,1.2-7.31,4-10.23,5.71a9.32,9.32,0,0,1-2.13.94,5.05,5.05,0,0,1-1,.16c-.44,0-.89,0-1.32,0-.61,0-1.21,0-1.81-.1.53-.35,1.05-.72,1.57-1.1a17.49,17.49,0,0,0,4-4,7.52,7.52,0,0,0,.75-1.44,6.11,6.11,0,0,0,.35-1.65,11.37,11.37,0,0,0-.08-3,19,19,0,0,1-.4-2.34,2.59,2.59,0,0,1,.64-1.54,2.62,2.62,0,0,0,.28-1,1.47,1.47,0,0,0-1.55-1.36,7.53,7.53,0,0,0-3.71,1.35,14.37,14.37,0,0,0-2.65,2.41c-1.52,1.71-2.74,3.5-4.07,5.08a11.46,11.46,0,0,1-2.06,2,16.32,16.32,0,0,1-2.54,1.5c-.45.22-.91.42-1.38.61a13.52,13.52,0,0,0,1.22-2.85,19.56,19.56,0,0,0,.82-6.08,12.78,12.78,0,0,0,0-3.61,19.66,19.66,0,0,0-.39-2,20,20,0,0,0-.58-2,1.41,1.41,0,0,0-2.73.7l0,.07c.09.53.17,1.15.22,1.73s.07,1.17.06,1.74a8.51,8.51,0,0,1-.49,2.89,26.25,26.25,0,0,1-1.73,2.24,35.48,35.48,0,0,1-3.56,3.59,31.5,31.5,0,0,1-4,3c-.47.3-1,.57-1.44.82a20.69,20.69,0,0,0,.9-4.64,24.15,24.15,0,0,0-.42-6.35c.11-.23.23-.45.36-.68a9.07,9.07,0,0,1,1.47-1.73,12.28,12.28,0,0,1,1.92-1.46c.35-.22.72-.42,1.08-.63l1.14-.56.07,0a1,1,0,0,0-.73-1.93l-1.36.38c-.44.16-.9.3-1.34.48a15.75,15.75,0,0,0-2.62,1.33,12.16,12.16,0,0,0-2.38,2,9.28,9.28,0,0,0-1,1.29,7.78,7.78,0,0,0-.44.75c-.06.14-.13.26-.19.42a3.21,3.21,0,0,0-.2.57c0,.06,0,.12,0,.18l0,.06c-.44.84-.91,1.66-1.41,2.47a33.91,33.91,0,0,1-3.31,4.55,22,22,0,0,1-4.87,4.25l.12-.42a22.83,22.83,0,0,0,.62-5c.06-1.6,0-3.17.13-4.65a10,10,0,0,1,.29-2,3.92,3.92,0,0,1,.29-.75,1.11,1.11,0,0,1,.12-.16,12.15,12.15,0,0,0,4.74-3.4,1.5,1.5,0,1,0-2.4-1.8,9.25,9.25,0,0,1-3.45,2.4,93.28,93.28,0,0,0-10.57,3.8c-.88.39-1.75.81-2.62,1.29a12.2,12.2,0,0,0-2.24,1.57,5,5,0,0,0-3.61-1.5,7.46,7.46,0,0,0-2.24.35,14,14,0,0,0-1.36-8,9.37,9.37,0,0,0-4.31-4,8.94,8.94,0,0,0-2.19-9.53l.24-.17a25.76,25.76,0,0,1,5.25-2.36,1.48,1.48,0,0,0,.77-.34,8.09,8.09,0,0,0,2.32-9.3h0c.21-.09,21.91-8.87,39.41-7,16.51,1.79,27,6.53,37.53,16.93a2.52,2.52,0,0,0,1.76.72,2.47,2.47,0,0,0,1.78-.74,2.5,2.5,0,0,0,0-3.53,68.79,68.79,0,0,0-6-5.36c2.76-3.94,10.61-16.85,7.1-32.3-4.56-20.1-21.33-32.21-44.86-32.4h-1c-21.78,0-40,5.73-57.12,18-9.7,6.93-15.45,13.29-18.53,17.32-.46-1.58-1-3.1-1.6-4.64a95,95,0,0,1-2.81-9.56,68.53,68.53,0,0,1-1.94-19.46,41.47,41.47,0,0,1,1.61-9.39,35.63,35.63,0,0,1,1.65-4.39c.61-1.39,1.48-2.85,2.26-4.3s1.69-2.83,2.56-4.23,1.81-2.75,2.83-4A61,61,0,0,1,89.68,82c9.3-9.16,21.78-14.62,34.69-17.73a130.44,130.44,0,0,1,19.81-3.09q5-.41,10-.45c1.68,0,3.35,0,5,0l.81,0-.25.36c-.26.4-.52.81-.76,1.23s-.46.81-.72,1.38a2.4,2.4,0,0,0,4.33,2l0-.09c.11-.22.32-.61.51-.93s.4-.67.62-1a23.63,23.63,0,0,1,1.41-1.92,26.4,26.4,0,0,1,3.34-3.43,25.54,25.54,0,0,1,8.25-4.7,28.55,28.55,0,0,1,4.66-1.14c.8-.12,1.6-.21,2.41-.27s1.56-.08,2.49-.1a73.46,73.46,0,0,0,10.8-1,41.65,41.65,0,0,0,5-1.22v.77c.12,3.63.38,7,.19,10.28a27.84,27.84,0,0,1-2,9.37,21.44,21.44,0,0,1-5.35,7.61h0a2.51,2.51,0,0,0,3.4,3.7h0a26.6,26.6,0,0,0,6.57-9.4c.15-.35.28-.71.41-1.07l1.9,1.32a42.91,42.91,0,0,0,4.54,2.83,15.74,15.74,0,0,0,5.94,1.89,11.12,11.12,0,0,0,1.53,0,9.23,9.23,0,0,1-1.25,2.41,12.75,12.75,0,0,1-2.67,2.73,19.19,19.19,0,0,1-1.65,1.13c-.29.17-.58.34-.87.49l-.58.28a9.24,9.24,0,0,1-1.72.47,14.73,14.73,0,0,1-2.6.15,21.11,21.11,0,0,1-2.72-.29,21.89,21.89,0,0,1-2.65-.63l-.11,0a2,2,0,0,0-1.35,3.76,23.86,23.86,0,0,0,3.2,1.05,23.6,23.6,0,0,0,3.29.62,20.07,20.07,0,0,0,2.59.12c0,.47.08.94.14,1.41a33.64,33.64,0,0,0,.64,3.56,23.19,23.19,0,0,0,2.84,7l.56.82a4.17,4.17,0,0,0,.33.45l.38.45a12.47,12.47,0,0,0,1.56,1.46,15.73,15.73,0,0,0,3.48,2.1,12.53,12.53,0,0,0,3.75,1,4.15,4.15,0,0,1-.9.87,7.24,7.24,0,0,1-2.71,1.1,10.71,10.71,0,0,1-1.62.21c-.28,0-.55,0-.83,0s-1.79,0-1.94,0c-3.09-.68-7.42-2.14-8.92-4a2,2,0,0,0-3.12,2.51c2.3,2.86,7.23,4.44,10.23,5.18l4.7,14.56-.58.06c-14.93,1.42-19.64,4.18-18.33,9.58s6.35,11.3,12.84,15.82a105.12,105.12,0,0,0,11.36,6.93,21.16,21.16,0,0,0,1.63,2.51c1.54,2.14,3.87,5.36,7.16,14.67,9.14,25.87,12.36,55.69,8.84,81.8C236.79,296.79,220.37,313.8,207.47,321.52Zm92-88.07c7.73-3.63,14.4-6.75,17.87-9.61,6.62-5.44,10.73-13.94,10-20.66a10,10,0,0,0-5.27-8.14c-4.69-2.4-9.51-2.35-13.23.13-2.8,1.87-4.46,4.87-4.24,7.64.28,3.54,2.89,5.79,5.61,6.89a5.36,5.36,0,0,1-4.15,1.81h0c-1.53,0-3.86-2.46-4.48-3.43s-1.27-2.2-2.27-2.07c-1.36.18-1.32,1.28-1.52,2.67-.87,6.3-2.95,7.75-4.4,9.66a16.26,16.26,0,0,0-1,1.48c-.25.43-.51,1-.76,1.5-2.54-4.11-5.14-9-2.54-13.93,2.06-3.87,3.41-4.82,4.82-5.74,1-.68,2.57-1.42,2.25-2.26s-1.8-.65-3.05-.53c-3.89.37-6.22-1.68-6.8-3.27a4.54,4.54,0,0,1,.14-3.85,18.32,18.32,0,0,1,1.91-2.17c-.33,1.35-.54,2.9,0,3.67.76,1.09,2.64,2.83,6.58,2.19a28.27,28.27,0,0,0,6.83-2.63c4.63-2.2,10.39-4.94,16.26-4.2,9.66,1.22,14.95,11.19,14.3,19.73-.82,10.92-9.34,20.44-23.38,26.14-6.33,2.56-11.84,4.95-16.69,7.4L289.86,238C293.12,236.42,296.38,234.88,299.45,233.45Zm55.47-31.62a35.2,35.2,0,0,0,1.86,4.14c-7-3.2-15.43-8.42-18.9-15.85a17.09,17.09,0,0,1-.35-14.34c.38-.92.58-1.81-.11-2.53-.41-.51-1.73-.4-2.66-.07a63.15,63.15,0,0,0-7.37,3.07c1.94-9.25.35-20.68-6.06-26.12-7-5.92-20.2-6.57-32.06,3.63-12.23,10.53-19.11,27.6-19.58,39-.7,16.77,3.61,27,13.13,43.2l7.31,12.08.64,1.05h0c1.93,3.17,4,6.56,6.22,10.26,10.34,17.08,12,35.18,4.69,51-6.65,14.33-19.84,24.67-34.42,27-18.44,2.92-28.27-6.46-33-11l-.14-.14c-3.74-3.56-6.42-6.16-8.28-8a74.91,74.91,0,0,0,4.93-5.7c1.65,1.9,4,4.48,6.61,7.08,7.25,7.15,13.63,10.13,17.92,10.13,2.79,0,3.81-.84,5.65-3.32,5.05-6.82,5.7-21.92.65-38.51-1-3.38-5.58-21,6-35.11a39.47,39.47,0,0,1,8.93-7.43l2.81,4.37a50.29,50.29,0,0,0-5.37,4.78c-8.09,8.31-10.3,17.77-7.16,30.68,4.81,19.71,6.07,33.26.92,41.69-.76,1.25-1.78,3.08-1,4,.62.75,2.1.56,3.41-.07,7.22-3.48,31.19-15.8,31.25-39.52,0-13.6-6.49-26.19-15-39.9l-.46-.73-7.75-12.1q-1.77-2.75-3.57-5.61c-13.46-21.37-11.87-37.71-8.15-52.19,3.15-12.26,15.23-32.78,31.15-37.87A37.14,37.14,0,0,1,308.93,141c8.35,0,16.08,3.23,23.07,9.67l.12.11c6.13,5.64,12.93,11.91,22.2,13.57-1.78,1.22-2.91,2.08-4.74,2.46-1.14.24-2.33-.63-2.91.32-.46.76.06,1.77.81,2.6,1.14,1.27,2.14,1.51,3.49,2.52,3.33,2.49,6,5.4,6.66,11.25.33,3-.63,5.16-1.65,7.42C354.66,193.86,353.17,197.17,354.92,201.83ZM271.72,284c-2.72-11.19-1-19,5.88-26a45.58,45.58,0,0,1,4.48-4c8.16,13.07,14.36,25,14.32,37.28,0,4.94-1.82,21.2-23.46,33.51C276.47,315.24,276.06,301.82,271.72,284ZM61.9,330.8h0a12.55,12.55,0,0,1-4.06-.45c-16.24-4.07-38.36-28.43-41.51-42-.91-5.87,0-11.73,3.61-15.8a16.56,16.56,0,0,1,12.18-5.86c4.51,0,9.51,1,13.12,3.68,12.67,7.37,24.25,33,25.93,39.59.75,2.93,4.47,11.84-.17,17.49-1.36,2.26-5,3.32-9.1,3.32ZM32.12,271.68a10.48,10.48,0,0,0-8.57,4.06,14.78,14.78,0,0,0-2.26,11.74c2.26,11.73,23.47,34.74,37.91,38.35a6.69,6.69,0,0,0,2.7.45,4.51,4.51,0,0,0,3.61-1.35c1.81-2.71.91-8.57-.45-11.73-4.06-9-16.24-32.49-22.56-37.46-3.61-2.7-7.22-4.06-10.38-4.06Zm83.93-165.57a8.14,8.14,0,0,0-5.7,2.34c-1.37-.26-4-.53-5.79.69a5,5,0,0,0-2.15,3.8,3.86,3.86,0,0,0,1.27,3.18,34.3,34.3,0,0,0,7.84,4.31,1.85,1.85,0,0,0,.45.11H112c1.82,0,7.23-6.24,7.85-8a5.62,5.62,0,0,0-.59-4.61A4.09,4.09,0,0,0,116.05,106.11Zm1,5.46c-.45,1.25-3.77,4.64-5.14,5.78a31.2,31.2,0,0,1-6.29-3.51.91.91,0,0,1-.22-.74,2,2,0,0,1,.84-1.48,3.38,3.38,0,0,1,1.81-.39,9.58,9.58,0,0,1,2.36.31,1.48,1.48,0,0,0,1.51-.45c.5-.55,2.27-2.1,3.92-2a1.07,1.07,0,0,1,.92.51A2.72,2.72,0,0,1,117.06,111.57Zm-23.68-7.16a1.14,1.14,0,0,1-.65,1.08l-.11.05a31.22,31.22,0,0,0-4.46,2.4,13.38,13.38,0,0,0-3.4,3.14c-.19.32-.37.57-.57,1s-.4.72-.57,1.09a22.88,22.88,0,0,0-.94,2.23,21.77,21.77,0,0,0-1.08,4.84,1.13,1.13,0,0,1-1.25,1,1.14,1.14,0,0,1-.95-.76,11.71,11.71,0,0,1-.29-6,15.39,15.39,0,0,1,.92-2.91,13.67,13.67,0,0,1,1.52-2.74,11.69,11.69,0,0,1,2.26-2.29c.41-.34.86-.6,1.28-.89s.9-.51,1.36-.72a15.47,15.47,0,0,1,5.75-1.48A1.12,1.12,0,0,1,93.38,104.41Zm60.09-4.49a1.21,1.21,0,0,1-.93,1.45,1.22,1.22,0,0,1-1.31-.55l0-.06a11.8,11.8,0,0,0-3.86-3.84,13.1,13.1,0,0,0-5.09-1.84,17.1,17.1,0,0,0-2.78-.13,19.47,19.47,0,0,0-2.81.36,20.59,20.59,0,0,0-5.41,2l-.14.07a1.21,1.21,0,0,1-1.41-1.94,15.55,15.55,0,0,1,6-3.6,16.24,16.24,0,0,1,7.08-.71,15.11,15.11,0,0,1,3.54.91,13.59,13.59,0,0,1,3.17,1.84A10.68,10.68,0,0,1,153.47,99.92ZM107,153.45c-3.61,2.71-2.71,6.32,1.81,6.77,4.06.45,4.51.9,8.57-2.26s5-8.57,0-8.12c-5,.9-8.12,1.8-10.38,3.61m-11.28,2.26a5,5,0,1,1-5-5,5,5,0,0,1,5,5m55.5-13.54a5,5,0,0,1-5,5c-2.71,0-4.51-2.26-4.51-5a5,5,0,0,1,5-5c2.71,0,4.51,2.26,4.51,5M87.64,201.36a1.5,1.5,0,0,0,.51-1.6A27.33,27.33,0,0,0,79.8,187a.69.69,0,0,0-.13-.11,21.45,21.45,0,0,0-7.42-4.34,18.12,18.12,0,0,0-6.38-.62c-3-1-6.11-1.82-6.11-1.82S55,181,50.32,186c-3,3.11-8.4,15.08-1,22.77a20.93,20.93,0,0,0,2.56,1.91c3.61,3.67,4.43,9.08,5.92,18.9l.28,1.85a1.5,1.5,0,0,0,1,1.18,1.58,1.58,0,0,0,.52.09,1.48,1.48,0,0,0,1-.36c1.89-1.62,5.15-8.44,6.59-13.37l.24-.17c2.08,3,5,7.53,5.71,11.11a1.55,1.55,0,0,0,1,1.34,1.59,1.59,0,0,0,1.7-.39c.94-1,3.21-8.57,1.59-17.22a2,2,0,0,0-.06-.32,0,0,0,0,0,0,0c-.16-.81-.34-1.63-.58-2.46,3.19,2.07,7.23,5.21,8.64,7.9a1.5,1.5,0,0,0,2.83-.78,36.93,36.93,0,0,0-6.39-17.85,1,1,0,0,0-.11-.17c-.13-.19-.25-.39-.38-.57A42.94,42.94,0,0,1,86,201.49,1.5,1.5,0,0,0,87.64,201.36Zm-27.11,25.9c-.56-3.66-1.07-6.75-1.75-9.41a1,1,0,0,0,.09-.21A2.39,2.39,0,0,1,61,216.2a5.15,5.15,0,0,1,3.56,1.06A56.11,56.11,0,0,1,60.53,227.26ZM65.06,214s0,0,0,.07a8.11,8.11,0,0,0-4.33-.81,5.68,5.68,0,0,0-3,1.18,21.6,21.6,0,0,0-3-5.39c-1.78-2.16-4.34-4.26-3.55-10.62a15.44,15.44,0,0,1,6.93-11.06,19.11,19.11,0,0,1,9.24-2.52,14.93,14.93,0,0,1,4.11.57,16.5,16.5,0,0,1,4.57,2.4,6,6,0,0,0-2.63,3.41c-.49,1.86.19,3.8,2,5.78l.05.05,0,0a25.7,25.7,0,0,1,1.92,2.08,6.8,6.8,0,0,0-2.87,1.12c-3.13,2.16-2.64,6-2,7.76l0,0a0,0,0,0,0,0,0c.18.4.34.8.5,1.19a6.93,6.93,0,0,0-3.3-.21A5.89,5.89,0,0,0,65.06,214Zm9.5,11a63.79,63.79,0,0,0-6.11-9.9l-.43-.6A2.89,2.89,0,0,1,70.31,212a3.75,3.75,0,0,1,4.14,2.16h0A31.29,31.29,0,0,1,74.56,225Zm9.81-12.09a48,48,0,0,0-9.21-6.47,3.32,3.32,0,0,1,1-3.67,4.55,4.55,0,0,1,3.42-.58A37,37,0,0,1,84.37,212.86Zm-7.06-18.2A3.39,3.39,0,0,1,76.25,192c.24-1,1.37-1.72,2.22-2.15A24.56,24.56,0,0,1,84,197.18C81.19,196,78.34,195,77.31,194.66ZM192.65,60.16a29.92,29.92,0,0,1,.44,6,13.25,13.25,0,0,1-.61,3.18,15.71,15.71,0,0,1-1.27,2.82,1.64,1.64,0,0,1-3-1.37v0a10,10,0,0,0,.7-4.6,18.63,18.63,0,0,0-.69-3.22,12.84,12.84,0,0,0-5.59.77,18.35,18.35,0,0,0-3.39,1.6c-.55.33-1.09.68-1.6,1a17.26,17.26,0,0,0-1.42,1.11l-.07.07a2.5,2.5,0,0,1-3.34-3.73,23,23,0,0,1,1.91-1.52c.64-.45,1.29-.88,2-1.28A23.63,23.63,0,0,1,181,59a19.35,19.35,0,0,1,4.76-1,16,16,0,0,1,5,.35h0l.29.08A2.2,2.2,0,0,1,192.65,60.16Z"/><path id="ear-left" class="cls-8" d="M230.74,134.55c-9.48,0-26.25-.07-25.17,2.87,2.39,6.54,9.29,15.17,32,19.54l2.56.1a40,40,0,0,0,7.68-.9c11.73-3.61,18.95-10.83,21.66-16.25.12-.32.24-.61.35-.9.6-1.54-.52-2.92-2.13-3.31a56.33,56.33,0,0,0-11.06-1.15Z"/></g></svg>